<svg width="100" height="100" viewBox="0 0 100 100" fill="none" xmlns="http://www.w3.org/2000/svg">
<rect width="100" height="100" rx="50" fill="white"/>
<path fill-rule="evenodd" clip-rule="evenodd" d="M28.2471 39.9398C30.2767 38.5831 32.715 37.9715 35.146 38.2095C36.9014 38.3514 38.6219 38.7777 40.24 39.4715C46.6683 42.5428 52.6477 46.4735 58.0134 51.1554C62.1484 54.7595 66.5835 58.0053 71.2706 60.8576C72.6753 61.6539 74.1648 62.2942 75.7127 62.7678C76.9981 63.1568 78.3471 63.3049 79.6882 63.2017C80.0593 63.252 80.433 63.252 80.8067 63.2017L82.1054 62.9848C76.7967 67.4906 73.1471 67.562 67.1864 64.2812C63.1673 61.9007 59.3392 59.2124 55.7368 56.2406C53.6774 54.6188 51.6552 52.9942 49.5958 51.4808C45.632 48.497 41.4132 45.8667 36.988 43.6201C34.149 42.2452 31.2301 41.041 28.2471 40.0139" fill="#DADADA"/>
<path fill-rule="evenodd" clip-rule="evenodd" d="M59.3865 49.8941C62.6037 45.6982 65.4553 41.2353 67.9101 36.5539C68.5621 35.3977 68.8139 34.9294 69.1743 34.2098C69.935 32.6937 70.5472 32.2254 69.1743 32.2968H68.1274C67.1892 32.2968 67.2607 32.5508 66.8632 33.4504C65.9621 35.6147 65.3101 37.3106 64.4063 39.2209C62.2771 44.1469 59.335 48.6813 55.7024 52.6351C51.5265 57.4894 46.0505 61.0542 39.9168 62.9114C37.2955 63.5968 34.5514 63.671 31.8968 63.1284C29.2589 62.6651 26.8264 61.4066 24.9263 59.5222C21.7114 56.1355 22.0003 51.0476 24.0941 45.0999C24.1089 44.968 24.1089 44.8349 24.0941 44.703C24.3114 44.1977 25.2152 42.0704 24.0941 43.2954C23.7625 43.6274 23.4493 43.9772 23.1558 44.3432C21.9068 45.9673 20.9532 47.7978 20.3385 49.7512C19.0929 53.0392 19.0929 56.6681 20.3385 59.9561C20.8553 61.1573 21.6186 62.2367 22.578 63.131C24.023 64.434 25.7743 65.3514 27.6694 65.798L28.8992 66.0494C31.8743 66.4187 34.8943 66.136 37.7488 65.2212C40.7702 64.3481 43.6565 63.0517 46.3095 61.361C47.2106 60.8212 48.08 60.2074 49.0182 59.5222C52.8924 56.696 56.3782 53.3745 59.3865 49.6427" fill="#25A5B6"/>
</svg>
