<svg width="100" height="100" viewBox="0 0 100 100" fill="none" xmlns="http://www.w3.org/2000/svg">
<rect width="100" height="100" fill="white"/>
<path fill-rule="evenodd" clip-rule="evenodd" d="M50.1235 30.7304C48.5326 30.7305 46.9896 31.2754 45.7511 32.2745C44.5126 33.2736 43.6533 34.6668 43.3159 36.2224C43.1468 37.0023 42.6602 37.6763 41.9734 38.0821C41.2865 38.4879 40.4617 38.5886 39.6975 38.3601C38.8055 38.0934 37.8692 38.0081 36.9437 38.1092C36.0183 38.2104 35.1224 38.4959 34.309 38.9489C33.4956 39.4019 32.7811 40.0134 32.2076 40.7471C31.6341 41.4808 31.2133 42.322 30.9699 43.2211C30.7264 44.1202 30.6654 45.0589 30.7904 45.9819C30.9153 46.9049 31.2237 47.7936 31.6974 48.5955C32.1711 49.3974 32.8004 50.0962 33.5483 50.6509C34.2962 51.2055 35.1476 51.6047 36.0521 51.8249C37.3355 52.1374 38.2388 53.2875 38.2388 54.6089V59.4521L62.0082 59.434V54.6089C62.0082 53.3148 62.8752 52.1813 64.1238 51.8432C65.0072 51.604 65.835 51.193 66.5597 50.6337C67.2845 50.0744 67.892 49.3778 68.3477 48.5836C68.8033 47.7894 69.0981 46.9131 69.2153 46.0049C69.3325 45.0967 69.2698 44.1742 69.0307 43.2903C68.7916 42.4063 68.3809 41.5781 67.8219 40.853C67.2629 40.1278 66.5667 39.52 65.7729 39.0641C64.9791 38.6082 64.1034 38.3131 63.1956 38.1959C62.2879 38.0786 61.366 38.1414 60.4825 38.3806C59.725 38.5857 58.9164 38.4708 58.2459 38.0626C57.5755 37.6544 57.1018 36.9887 56.9357 36.2213C56.2561 33.0811 53.4608 30.7304 50.1235 30.7304ZM50.1234 25C47.2245 25 44.413 25.9929 42.1562 27.8135C40.6278 29.0465 39.4162 30.609 38.6025 32.3696C37.8444 32.3156 37.0812 32.3297 36.322 32.4127C34.6365 32.5968 33.0049 33.1168 31.5234 33.9419C30.0419 34.767 28.7406 35.8806 27.6961 37.217C26.6516 38.5533 25.8851 40.0854 25.4418 41.7228C24.9985 43.3603 24.8874 45.07 25.1149 46.7511C25.3425 48.4322 25.9042 50.0507 26.7669 51.5112C27.6296 52.9716 28.7758 54.2445 30.138 55.2546C30.8784 55.8037 31.6745 56.2692 32.5115 56.6441V72.1348C32.5115 73.7172 33.7936 75 35.3751 75H64.8718C66.4534 75 67.7355 73.7172 67.7355 72.1348V56.5943C68.5563 56.2056 69.335 55.7289 70.0576 55.1713C71.3779 54.1524 72.4846 52.8833 73.3147 51.4364C74.1448 49.9896 74.6819 48.3933 74.8955 46.7387C75.109 45.0842 74.9947 43.4037 74.5591 41.7933C74.1236 40.183 73.3753 38.6742 72.357 37.3532C71.3386 36.0322 70.0702 34.9248 68.6242 34.0942C67.1781 33.2637 65.5827 32.7262 63.9291 32.5126C63.1795 32.4158 62.4247 32.3863 61.6734 32.4236C59.67 28.0448 55.2557 25 50.1234 25ZM62.0082 65.1645L38.2388 65.1826V69.2695H62.0082V65.1645Z" fill="#212121"/>
</svg>
