<svg width="100" height="100" viewBox="0 0 100 100" fill="none" xmlns="http://www.w3.org/2000/svg">
<rect width="100" height="100" fill="#F8F8F5"/>
<rect x="23" y="23" width="8.70966" height="8.70966" rx="2.08659" fill="#EEF0E9"/>
<rect width="8.70966" height="8.70966" rx="2.08659" transform="matrix(-1 0 0 1 40.7539 23)" fill="#EEF0E9"/>
<rect width="8.70966" height="8.70966" rx="2.08659" transform="matrix(-1 0 0 1 49.7988 23)" fill="#EEF0E9"/>
<rect x="50.1338" y="23" width="8.70966" height="8.70966" fill="#84B523"/>
<rect x="59.1777" y="23" width="8.70966" height="8.70966" fill="#84B523"/>
<rect x="68.2227" y="23" width="8.70966" height="8.70966" fill="#84B523"/>
<rect x="23" y="32.0445" width="8.70966" height="8.70966" rx="2.08659" fill="#EEF0E9"/>
<rect x="32.0439" y="32.0445" width="8.70966" height="8.70966" rx="2.08659" fill="#EEF0E9"/>
<rect x="41.0889" y="32.0445" width="8.70966" height="8.70966" rx="2.08659" fill="#EEF0E9"/>
<rect x="50.1338" y="32.0445" width="8.70966" height="8.70966" fill="#84B523"/>
<rect x="59.1777" y="32.0445" width="8.70966" height="8.70966" rx="2.08659" fill="#EEF0E9"/>
<rect x="68.2227" y="32.0445" width="8.70966" height="8.70966" fill="#84B523"/>
<rect x="23" y="41.0891" width="8.70966" height="8.70966" fill="#ADD956"/>
<rect x="32.0439" y="41.0891" width="8.70966" height="8.70966" fill="#ADD956"/>
<rect x="41.0889" y="41.0891" width="8.70966" height="8.70966" fill="#ADD956"/>
<rect x="50.1338" y="41.0891" width="8.70966" height="8.70966" fill="#84B523"/>
<rect x="59.1777" y="41.0891" width="8.70966" height="8.70966" fill="#84B523"/>
<rect x="68.2227" y="41.0891" width="8.70966" height="8.70966" fill="#84B523"/>
<rect x="23" y="50.1336" width="8.70966" height="8.70966" fill="#ADD956"/>
<rect x="32.0439" y="50.1336" width="8.70966" height="8.70966" rx="2.08659" fill="#EEF0E9"/>
<rect x="41.0889" y="50.1336" width="8.70966" height="8.70966" fill="#ADD956"/>
<rect x="50.1338" y="50.1336" width="8.70966" height="8.70966" fill="#84B523"/>
<rect x="59.1777" y="50.1336" width="8.70966" height="8.70966" rx="2.08659" fill="#EEF0E9"/>
<rect x="68.2227" y="50.1336" width="8.70966" height="8.70966" fill="#84B523"/>
<rect x="23" y="59.1782" width="8.70966" height="8.70966" fill="#ADD956"/>
<rect x="32.0439" y="59.1782" width="8.70966" height="8.70966" fill="#ADD956"/>
<rect x="41.0889" y="59.1782" width="8.70966" height="8.70966" fill="#ADD956"/>
<rect x="50.1338" y="59.1782" width="8.70966" height="8.70966" fill="#84B523"/>
<rect x="59.1777" y="59.1782" width="8.70966" height="8.70966" fill="#84B523"/>
<rect x="68.2227" y="59.1782" width="8.70966" height="8.70966" fill="#84B523"/>
<rect x="23" y="68.2227" width="8.70966" height="8.70966" fill="#ADD956"/>
<rect x="32.0439" y="68.2227" width="8.70966" height="8.70966" rx="2.08659" fill="#EEF0E9"/>
<rect x="41.0889" y="68.2227" width="8.70966" height="8.70966" fill="#ADD956"/>
<rect x="50.1338" y="68.2227" width="8.70966" height="8.70966" fill="#84B523"/>
<rect x="59.1777" y="68.2227" width="8.70966" height="8.70966" rx="2.08659" fill="#EEF0E9"/>
<rect x="68.2227" y="68.2227" width="8.70966" height="8.70966" fill="#84B523"/>
</svg>
