<svg width="16" height="16" viewBox="0 0 16 16" fill="none" xmlns="http://www.w3.org/2000/svg">
<path d="M5.3335 3.33325H6.66683V4.66659H5.3335V3.33325ZM4.00016 4.66659H5.3335V5.99992H4.00016V4.66659ZM2.66683 5.99992H4.00016V7.33325H2.66683V5.99992ZM1.3335 7.33325H2.66683V8.66658H1.3335V7.33325ZM2.66683 8.66658H4.00016V9.99992H2.66683V8.66658ZM4.00016 9.99992H5.3335V11.3333H4.00016V9.99992ZM5.3335 11.3333H6.66683V12.6666H5.3335V11.3333ZM10.6668 3.33325H9.3335V4.66659H10.6668V3.33325ZM12.0002 4.66659H10.6668V5.99992H12.0002V4.66659ZM13.3335 5.99992H12.0002V7.33325H13.3335V5.99992ZM14.6668 7.33325H13.3335V8.66658H14.6668V7.33325ZM13.3335 8.66658H12.0002V9.99992H13.3335V8.66658ZM12.0002 9.99992H10.6668V11.3333H12.0002V9.99992ZM10.6668 11.3333H9.3335V12.6666H10.6668V11.3333Z" fill="#363631"/>
</svg>
