<svg width="32" height="33" viewBox="0 0 32 33" fill="none" xmlns="http://www.w3.org/2000/svg">
<path d="M24.0013 3.29248H21.3346V5.95915H24.0013V3.29248ZM5.33464 5.95915H13.3346V8.62581H5.33464V27.2925H24.0013V19.2925H26.668V29.9591H2.66797V5.95915H5.33464ZM10.668 16.6258H8.0013V24.6258H16.0013V21.9591H18.668V19.2925H16.0013V21.9591H10.668V16.6258ZM16.0013 13.9591H13.3346V16.6258H10.668V13.9591H13.3346V11.2925H16.0013V8.62581H18.668V11.2925H16.0013V13.9591ZM18.668 5.95915H21.3346V8.62581H18.668V5.95915ZM24.0013 5.95915H26.668V8.62581H29.3346V11.2925H26.668V13.9591H24.0013V16.6258H21.3346V13.9591H24.0013V11.2925H26.668V8.62581H24.0013V5.95915ZM18.668 16.6258H21.3346V19.2925H18.668V16.6258Z" fill="#363631"/>
</svg>
