<svg width="24" height="24" viewBox="0 0 24 24" fill="none" xmlns="http://www.w3.org/2000/svg">
<path d="M7.75951 3.31267C8.47128 3.55329 9.14818 3.88708 9.77264 4.30538C10.6551 4.0791 11.5626 3.96558 12.4736 3.96752C13.4143 3.96752 14.3219 4.0852 15.1726 4.30444C15.7968 3.88654 16.4734 3.55307 17.1848 3.31267C17.8451 3.08774 18.7858 2.7233 19.3447 3.34304C19.7237 3.76442 19.8184 4.47052 19.8857 5.00959C19.9615 5.61129 19.9795 6.39521 19.7805 7.17344C20.5413 8.15761 20.9998 9.3316 20.9998 10.6109C20.9998 12.5489 19.952 14.2316 18.4012 15.397C17.6545 15.9503 16.8268 16.3844 15.9475 16.684C16.1503 17.149 16.263 17.6634 16.263 18.2034V21.0506C16.263 21.3023 16.1632 21.5437 15.9855 21.7217C15.8078 21.8996 15.5669 21.9996 15.3156 21.9996H9.63149C9.38023 21.9996 9.13927 21.8996 8.96161 21.7217C8.78394 21.5437 8.68413 21.3023 8.68413 21.0506V20.1101C7.7794 20.2211 7.02057 20.1224 6.37542 19.8481C5.7009 19.5615 5.23101 19.1173 4.87765 18.6922C4.54229 18.2898 4.17661 17.3825 3.64798 17.2059C3.52992 17.1666 3.42075 17.1043 3.32672 17.0226C3.23269 16.941 3.15563 16.8416 3.09994 16.7301C2.98748 16.5049 2.96891 16.2442 3.0483 16.0054C3.1277 15.7665 3.29856 15.569 3.52331 15.4564C3.74805 15.3437 4.00827 15.3251 4.24671 15.4046C4.87765 15.6153 5.2888 16.0709 5.57017 16.4372C6.0249 17.0256 6.39437 17.7944 7.11436 18.1009C7.41088 18.2271 7.84572 18.3097 8.52592 18.2167L8.68413 18.1844C8.68631 17.668 8.79366 17.1574 8.9996 16.684C8.12033 16.3844 7.29265 15.9503 6.54595 15.397C4.99512 14.2316 3.94735 12.5499 3.94735 10.6109C3.94735 9.3335 4.40492 8.16046 5.16375 7.17724C4.96481 6.39901 4.98186 5.61319 5.05765 5.01053L5.06238 4.97447C5.13154 4.42212 5.21207 3.77201 5.59859 3.34304C6.15753 2.7233 7.0992 3.08869 7.75856 3.31362L7.75951 3.31267Z" fill="#363631"/>
</svg>
