<svg width="24" height="24" viewBox="0 0 24 24" fill="none" xmlns="http://www.w3.org/2000/svg">
<path d="M8.1 5.5H13.3V6.8H12V8.1H10.7V6.8H8.1V5.5ZM6.8 8.1V6.8H8.1V8.1H6.8ZM6.8 14.6H5.5V8.1H6.8V14.6ZM8.1 15.9H6.8V14.6H8.1V15.9ZM9.4 17.2H8.1V15.9H9.4V17.2ZM15.9 17.2V18.5H9.4V17.2H15.9ZM17.2 15.9V17.2H15.9V15.9H17.2ZM15.9 13.3H17.2V15.9H18.5V10.7H17.2V12H15.9V13.3ZM12 13.3V14.6H15.9V13.3H12ZM10.7 12H12V13.3H10.7V12ZM10.7 12V8.1H9.4V12H10.7Z" fill="#CCCCC7"/>
<path d="M10.7 8.1V6.8H8.1V8.1H6.8V14.6H8.1V15.9H9.4V17.2H15.9V15.9H17.2V13.3H15.9V14.6H12V13.3H10.7V12H9.4V8.1H10.7Z" fill="#CCCCC7"/>
</svg>
