<svg width="24" height="24" viewBox="0 0 24 24" fill="none" xmlns="http://www.w3.org/2000/svg">
<path d="M12.6667 4H11.3333V6.66667H12.6667V4ZM4 11.3333V12.6667H6.66667V11.3333H4ZM20 11.3333V12.6667H17.3333V11.3333H20ZM12.6667 20H11.3333V17.3333H12.6667V20ZM9.33333 8H14.6667V9.33333H9.33333V8ZM8 9.33333H9.33333V14.6667H8V9.33333ZM9.33333 16V14.6667H14.6667V16H9.33333ZM16 14.6667H14.6667V9.33333H16V14.6667ZM17.3333 5.33333H18.6667V6.66667H17.3333V5.33333ZM17.3333 6.66667V8H16V6.66667H17.3333ZM18.6667 18.6667H17.3333V17.3333H18.6667V18.6667ZM17.3333 17.3333H16V16H17.3333V17.3333ZM6.66667 5.33333H5.33333V6.66667H6.66667V8H8V6.66667H6.66667V5.33333ZM5.33333 18.6667H6.66667V17.3333H8V16H6.66667V17.3333H5.33333V18.6667Z" fill="#363631"/>
<path d="M14.6667 9.33333H9.33333V14.6667H14.6667V9.33333Z" fill="#363631"/>
</svg>
