<svg width="24" height="24" viewBox="0 0 24 24" fill="none" xmlns="http://www.w3.org/2000/svg">
<path fill-rule="evenodd" clip-rule="evenodd" d="M18.777 4.42997C19.0241 4.32596 19.2946 4.29008 19.5603 4.32608C19.826 4.36208 20.0772 4.46863 20.2877 4.63465C20.4982 4.80067 20.6604 5.02008 20.7574 5.27005C20.8543 5.52002 20.8825 5.79141 20.839 6.05597L18.571 19.813C18.351 21.14 16.895 21.901 15.678 21.24C14.66 20.687 13.148 19.835 11.788 18.946C11.108 18.501 9.025 17.076 9.281 16.062C9.501 15.195 13.001 11.937 15.001 9.99997C15.786 9.23897 15.428 8.79997 14.501 9.49997C12.199 11.238 8.503 13.881 7.281 14.625C6.203 15.281 5.641 15.393 4.969 15.281C3.743 15.077 2.606 14.761 1.678 14.376C0.424001 13.856 0.485001 12.132 1.677 11.63L18.777 4.42997Z" fill="#363631"/>
</svg>
